<svg xmlns="http://www.w3.org/2000/svg" xmlns:xlink="http://www.w3.org/1999/xlink" width="120" zoomAndPan="magnify" viewBox="0 0 90 89.999999" height="120" preserveAspectRatio="xMidYMid meet" version="1.0"><path fill="#1583cf" d="M 45 90 C 20.152344 90 0 69.847656 0 45 C 0 20.152344 20.152344 0 45 0 C 69.847656 0 90 20.152344 90 45 C 90 69.847656 69.847656 90 45 90 Z M 45 90 " fill-opacity="1" fill-rule="evenodd"/><path fill="#1aa1ff" d="M 45 82.085938 C 24.53125 82.085938 7.914062 65.46875 7.914062 45 C 7.914062 24.53125 24.53125 7.914062 45 7.914062 C 65.46875 7.914062 82.085938 24.53125 82.085938 45 C 82.085938 65.46875 65.46875 82.085938 45 82.085938 Z M 45 82.085938 " fill-opacity="1" fill-rule="evenodd"/><path fill="#8f46da" d="M 45 82.085938 C 37.402344 82.085938 30.070312 79.816406 23.84375 75.492188 C 23.527344 75.28125 23.316406 74.910156 23.316406 74.488281 L 23.316406 63.886719 C 23.316406 56.5 29.332031 50.488281 36.769531 50.488281 L 39.25 50.488281 C 39.933594 50.488281 40.464844 51.015625 40.464844 51.699219 L 40.464844 56.289062 C 40.464844 58.820312 42.519531 60.828125 45 60.828125 C 47.480469 60.828125 49.535156 58.820312 49.535156 56.289062 L 49.535156 51.699219 C 49.535156 51.015625 50.066406 50.488281 50.75 50.488281 L 53.28125 50.488281 C 60.667969 50.488281 66.683594 56.5 66.683594 63.886719 L 66.683594 74.488281 C 66.683594 74.910156 66.472656 75.28125 66.15625 75.492188 C 59.929688 79.816406 52.597656 82.085938 45 82.085938 Z M 45 82.085938 " fill-opacity="1" fill-rule="evenodd"/><path fill="#7439b0" d="M 36.085938 81.03125 C 35.242188 80.820312 34.394531 80.609375 33.605469 80.347656 L 33.605469 68.476562 C 33.605469 67.789062 34.132812 67.210938 34.816406 67.210938 C 35.503906 67.210938 36.085938 67.789062 36.085938 68.476562 Z M 36.085938 81.03125 " fill-opacity="1" fill-rule="evenodd"/><path fill="#7439b0" d="M 56.394531 80.347656 C 55.605469 80.609375 54.757812 80.820312 53.914062 81.03125 L 53.914062 68.476562 C 53.914062 67.789062 54.496094 67.210938 55.183594 67.210938 C 55.867188 67.210938 56.394531 67.789062 56.394531 68.476562 Z M 56.394531 80.347656 " fill-opacity="1" fill-rule="evenodd"/><path fill="#ffb762" d="M 45 63.304688 C 41.148438 63.304688 37.984375 60.140625 37.984375 56.289062 L 37.984375 47.742188 C 37.984375 47.320312 38.246094 46.898438 38.617188 46.6875 C 38.984375 46.476562 39.460938 46.425781 39.828125 46.636719 C 42.996094 48.375 47.003906 48.375 50.171875 46.636719 C 50.539062 46.425781 51.015625 46.476562 51.382812 46.6875 C 51.753906 46.898438 51.964844 47.320312 51.964844 47.742188 L 51.964844 56.289062 C 51.964844 60.140625 48.851562 63.304688 45 63.304688 Z M 45 63.304688 " fill-opacity="1" fill-rule="evenodd"/><path fill="#ffc06d" d="M 45 50.433594 C 37.667969 50.433594 31.707031 44.472656 31.707031 37.140625 L 31.707031 30.386719 C 31.707031 29.699219 32.234375 29.171875 32.917969 29.171875 L 53.96875 29.171875 C 54.8125 29.171875 55.605469 28.855469 56.289062 28.382812 C 56.660156 28.117188 57.132812 28.011719 57.503906 28.222656 C 57.925781 28.382812 58.1875 28.804688 58.242188 29.226562 C 58.292969 29.59375 58.292969 30.019531 58.292969 30.386719 L 58.292969 37.140625 C 58.292969 44.472656 52.332031 50.433594 45 50.433594 Z M 45 50.433594 " fill-opacity="1" fill-rule="evenodd"/><path fill="#453333" d="M 53.96875 31.601562 L 32.917969 31.601562 C 32.234375 31.601562 31.707031 31.074219 31.707031 30.386719 L 31.707031 25.324219 C 31.707031 21.839844 34.5 19.042969 37.984375 19.042969 L 59.03125 19.042969 C 59.664062 19.042969 60.246094 19.570312 60.246094 20.257812 L 60.246094 25.324219 C 60.246094 28.804688 57.449219 31.601562 53.96875 31.601562 Z M 53.96875 31.601562 " fill-opacity="1" fill-rule="evenodd"/><path fill="#c7553a" d="M 45.003906 47.792969 C 44.777344 47.792969 44.558594 47.746094 44.347656 47.652344 C 44.140625 47.558594 43.953125 47.425781 43.792969 47.25 C 43.632812 47.078125 43.511719 46.878906 43.421875 46.652344 C 43.335938 46.425781 43.292969 46.191406 43.292969 45.945312 C 43.292969 45.703125 43.335938 45.46875 43.421875 45.242188 C 43.511719 45.015625 43.632812 44.816406 43.792969 44.640625 C 43.953125 44.46875 44.140625 44.335938 44.347656 44.242188 C 44.558594 44.148438 44.777344 44.101562 45.003906 44.101562 C 45.230469 44.101562 45.449219 44.148438 45.65625 44.242188 C 45.867188 44.335938 46.050781 44.46875 46.210938 44.640625 C 46.371094 44.816406 46.496094 45.015625 46.582031 45.242188 C 46.667969 45.46875 46.710938 45.703125 46.710938 45.945312 C 46.710938 46.191406 46.667969 46.425781 46.582031 46.652344 C 46.496094 46.878906 46.371094 47.078125 46.210938 47.25 C 46.050781 47.425781 45.867188 47.558594 45.65625 47.652344 C 45.449219 47.746094 45.230469 47.792969 45.003906 47.792969 Z M 45.003906 47.792969 " fill-opacity="1" fill-rule="nonzero"/><path fill="#453333" d="M 53.070312 38.246094 C 53.070312 38.472656 53.019531 38.6875 52.910156 38.894531 C 52.804688 39.101562 52.652344 39.28125 52.453125 39.441406 C 52.253906 39.597656 52.027344 39.722656 51.769531 39.808594 C 51.511719 39.894531 51.242188 39.933594 50.960938 39.933594 C 50.679688 39.933594 50.414062 39.894531 50.152344 39.808594 C 49.894531 39.722656 49.667969 39.597656 49.46875 39.441406 C 49.269531 39.28125 49.117188 39.101562 49.011719 38.894531 C 48.90625 38.6875 48.851562 38.472656 48.851562 38.246094 C 48.851562 38.023438 48.90625 37.808594 49.011719 37.601562 C 49.117188 37.394531 49.269531 37.210938 49.46875 37.054688 C 49.667969 36.894531 49.894531 36.773438 50.152344 36.6875 C 50.414062 36.601562 50.679688 36.558594 50.960938 36.558594 C 51.242188 36.558594 51.511719 36.601562 51.769531 36.6875 C 52.027344 36.773438 52.253906 36.894531 52.453125 37.054688 C 52.652344 37.210938 52.804688 37.394531 52.910156 37.601562 C 53.019531 37.808594 53.070312 38.023438 53.070312 38.246094 Z M 53.070312 38.246094 " fill-opacity="1" fill-rule="nonzero"/><path fill="#ffffff" d="M 50.960938 36.507812 C 52.121094 36.507812 53.070312 37.296875 53.070312 38.246094 C 53.070312 38.246094 53.070312 38.246094 53.070312 38.300781 C 53.019531 38.300781 52.914062 38.300781 52.859375 38.300781 C 51.699219 38.300781 50.75 37.507812 50.75 36.613281 C 50.75 36.558594 50.75 36.558594 50.75 36.558594 C 50.804688 36.558594 50.910156 36.507812 50.960938 36.507812 Z M 50.960938 36.507812 " fill-opacity="1" fill-rule="evenodd"/><path fill="#453333" d="M 48.058594 35.1875 C 47.796875 35.347656 47.742188 35.664062 47.902344 35.875 C 48.058594 36.136719 48.429688 36.191406 48.640625 36.03125 C 48.640625 36.03125 50.539062 34.605469 53.386719 36.03125 C 53.597656 36.191406 53.914062 36.085938 54.074219 35.820312 C 54.179688 35.558594 54.074219 35.242188 53.863281 35.136719 C 50.488281 33.394531 48.058594 35.136719 48.058594 35.1875 Z M 48.058594 35.1875 " fill-opacity="1" fill-rule="nonzero"/><path fill="#453333" d="M 41.148438 38.246094 C 41.148438 38.472656 41.09375 38.6875 40.988281 38.894531 C 40.882812 39.101562 40.730469 39.28125 40.53125 39.441406 C 40.332031 39.597656 40.105469 39.722656 39.847656 39.808594 C 39.585938 39.894531 39.320312 39.933594 39.039062 39.933594 C 38.757812 39.933594 38.488281 39.894531 38.230469 39.808594 C 37.972656 39.722656 37.746094 39.597656 37.546875 39.441406 C 37.347656 39.28125 37.195312 39.101562 37.089844 38.894531 C 36.980469 38.6875 36.929688 38.472656 36.929688 38.246094 C 36.929688 38.023438 36.980469 37.808594 37.089844 37.601562 C 37.195312 37.394531 37.347656 37.210938 37.546875 37.054688 C 37.746094 36.894531 37.972656 36.773438 38.230469 36.6875 C 38.488281 36.601562 38.757812 36.558594 39.039062 36.558594 C 39.320312 36.558594 39.585938 36.601562 39.847656 36.6875 C 40.105469 36.773438 40.332031 36.894531 40.53125 37.054688 C 40.730469 37.210938 40.882812 37.394531 40.988281 37.601562 C 41.09375 37.808594 41.148438 38.023438 41.148438 38.246094 Z M 41.148438 38.246094 " fill-opacity="1" fill-rule="nonzero"/><path fill="#ffffff" d="M 39.039062 36.507812 C 40.199219 36.507812 41.148438 37.296875 41.148438 38.246094 C 41.148438 38.246094 41.148438 38.246094 41.148438 38.300781 C 41.097656 38.300781 40.992188 38.300781 40.9375 38.300781 C 39.777344 38.300781 38.828125 37.507812 38.828125 36.613281 C 38.828125 36.558594 38.828125 36.558594 38.828125 36.558594 C 38.878906 36.558594 38.933594 36.507812 39.039062 36.507812 Z M 39.039062 36.507812 " fill-opacity="1" fill-rule="evenodd"/><path fill="#453333" d="M 36.085938 35.1875 C 35.875 35.347656 35.820312 35.664062 35.980469 35.875 C 36.136719 36.136719 36.453125 36.191406 36.71875 36.03125 C 36.71875 36.03125 38.617188 34.605469 41.414062 36.03125 C 41.675781 36.191406 41.992188 36.085938 42.152344 35.820312 C 42.257812 35.558594 42.152344 35.242188 41.886719 35.136719 C 38.511719 33.394531 36.085938 35.136719 36.085938 35.1875 Z M 36.085938 35.1875 " fill-opacity="1" fill-rule="nonzero"/></svg>